# xmcd
# 
# Track frame offsets:
#     150
#     21540
#     43063
#     64403
# 
# Disc length: 1144
# 
# Revision: 1
# Processed by: cddbd v1.5.2PL0 Copyright (c) Steve Scherf et al.
# Submitted via: fre:ac v1.0.17
# 
DISCID=38047604
DTITLE=吉岡亜衣加 - 風遥か
DYEAR=2010
DGENRE=Anime
TTITLE0=風遥か
TTITLE1=消えない虹
TTITLE2=風遥か（instrumental）
TTITLE3=消えない虹（instrumental）
EXTD=
EXTT0=
EXTT1=
EXTT2=
EXTT3=
PLAYORDER=
